<svg xmlns="http://www.w3.org/2000/svg" version="1.1" xmlns:xlink="http://www.w3.org/1999/xlink" xmlns:svgjs="http://svgjs.dev/svgjs" width="1500" height="1500" viewBox="0 0 1500 1500"><rect width="1500" height="1500" fill="#000000"></rect><g transform="matrix(0.6666666666666666,0,0,0.6666666666666666,249.39393939393938,582.6615309574147)"><svg viewBox="0 0 396 132" data-background-color="#ea9937" preserveAspectRatio="xMidYMid meet" height="500" width="1500" xmlns="http://www.w3.org/2000/svg" xmlns:xlink="http://www.w3.org/1999/xlink"><g id="tight-bounds" transform="matrix(1,0,0,1,0.2400000000000091,0.26603374086380427)"><svg viewBox="0 0 395.52 131.46793251827242" height="131.46793251827242" width="395.52"><g><svg viewBox="0 0 395.52 131.46793251827242" height="131.46793251827242" width="395.52"><g><svg viewBox="0 0 395.52 131.46793251827242" height="131.46793251827242" width="395.52"><g id="textblocktransform"><svg viewBox="0 0 395.52 131.46793251827242" height="131.46793251827242" width="395.52" id="textblock"><g><rect width="395.52" height="99.287346179402" fill="none" stroke-width="9.018103199999999" stroke="#ffffff" data-fill-palette-color="none" data-stroke-palette-color="tertiary"></rect><rect width="395.52" height="32.180586338870434" y="99.287346179402" fill="#ffffff" data-fill-palette-color="tertiary"></rect></g><g><svg viewBox="0 0 395.52 99.287346179402" height="99.287346179402" width="395.52"><g transform="matrix(1,0,0,1,23.607599999999998,23.607599999999998)"><svg width="348.3048" viewBox="1.67 -33.33 229.9 34.37" height="52.072146179402" data-palette-color="#ea3c12"><path d="M10-27.71L1.67-27.71 1.67-31.25 22.29-31.25 22.29-27.71 13.96-27.71 13.96 0 10 0 10-27.71ZM31.04 0L27.29 0 27.29-33.33 31.04-33.33 31.04-17.88Q32.22-19.51 33.96-20.38 35.69-21.25 37.67-21.25L37.67-21.25Q39.89-21.25 41.79-20.16 43.68-19.06 44.86-17 46.04-14.93 46.04-11.98L46.04-11.98 46.04 0 42.29 0 42.29-11.46Q42.29-13.92 40.81-15.82 39.34-17.71 36.66-17.71L36.66-17.71Q34.48-17.71 32.76-16.13 31.04-14.55 31.04-11.56L31.04-11.56 31.04 0ZM62.22 0.42L62.22 0.42Q58.95 0.42 56.37-1.04 53.78-2.5 52.3-5.02 50.83-7.53 50.83-10.63L50.83-10.63Q50.83-13.58 52.25-15.99 53.68-18.4 56.09-19.83 58.5-21.25 61.42-21.25L61.42-21.25Q64.3-21.25 66.7-19.88 69.09-18.51 70.52-16.18 71.94-13.85 71.94-10.9L71.94-10.9 71.94-9.38 58.33-9.38Q57.43-9.38 56.49-9.44 55.55-9.51 54.65-9.65L54.65-9.65Q55.03-6.88 57.17-5 59.3-3.13 62.25-3.13L62.25-3.13Q64.23-3.13 65.93-4.03 67.63-4.93 68.68-6.42L68.68-6.42 69.72-2.15Q68.22-0.94 66.3-0.26 64.37 0.42 62.22 0.42ZM54.54-12.19L54.54-12.19Q56.42-12.5 58.33-12.5L58.33-12.5 65.24-12.5Q66-12.5 66.75-12.45 67.5-12.4 68.26-12.33L68.26-12.33Q67.77-14.76 65.83-16.34 63.88-17.92 61.42-17.92L61.42-17.92Q58.88-17.92 56.97-16.23 55.06-14.55 54.54-12.19ZM80.69 0L76.94 0 76.94-20.83 80.41-20.83 80.41-17.01Q81.52-18.85 83.36-19.95 85.2-21.04 87.74-21.04L87.74-21.04 88.67-17.29Q88.01-17.5 87.15-17.5L87.15-17.5Q84.23-17.5 82.46-15.64 80.69-13.78 80.69-10.35L80.69-10.35 80.69 0ZM101.48 0.28L101.48 0.28Q98.64 0.28 96.27-1.16 93.91-2.6 92.51-5.03 91.1-7.47 91.1-10.42L91.1-10.42Q91.1-13.37 92.51-15.8 93.91-18.23 96.27-19.67 98.64-21.11 101.48-21.11L101.48-21.11Q103.64-21.11 105.53-20.31 107.42-19.51 108.81-18.09L108.81-18.09 108.81-20.83 112.28-20.83 112.28 0 108.81 0 108.81-2.74Q107.42-1.35 105.53-0.54 103.64 0.28 101.48 0.28ZM101.97-3.13L101.97-3.13Q103.95-3.13 105.56-4.11 107.18-5.1 108.13-6.75 109.09-8.4 109.09-10.42L109.09-10.42Q109.09-12.43 108.13-14.08 107.18-15.73 105.56-16.72 103.95-17.71 101.97-17.71L101.97-17.71Q99.99-17.71 98.38-16.72 96.76-15.73 95.81-14.08 94.85-12.43 94.85-10.42L94.85-10.42Q94.85-8.4 95.81-6.75 96.76-5.1 98.38-4.11 99.99-3.13 101.97-3.13ZM145.61-31.25L145.61 1.04 123.74-22.4 123.74 0 119.99 0 119.99-32.29 141.86-8.85 141.86-31.25 145.61-31.25ZM162.83 0.42L162.83 0.42Q159.81 0.42 157.31-1.04 154.81-2.5 153.34-4.97 151.86-7.43 151.86-10.42L151.86-10.42Q151.86-13.44 153.34-15.89 154.81-18.33 157.31-19.79 159.81-21.25 162.83-21.25L162.83-21.25Q165.89-21.25 168.37-19.79 170.85-18.33 172.33-15.89 173.8-13.44 173.8-10.42L173.8-10.42Q173.8-7.43 172.33-4.97 170.85-2.5 168.37-1.04 165.89 0.42 162.83 0.42ZM162.83-3.13L162.83-3.13Q164.85-3.13 166.48-4.11 168.11-5.1 169.08-6.75 170.05-8.4 170.05-10.42L170.05-10.42Q170.05-12.43 169.08-14.08 168.11-15.73 166.48-16.72 164.85-17.71 162.83-17.71L162.83-17.71Q160.82-17.71 159.19-16.72 157.55-15.73 156.58-14.08 155.61-12.43 155.61-10.42L155.61-10.42Q155.61-8.4 156.58-6.75 157.55-5.1 159.19-4.11 160.82-3.13 162.83-3.13ZM185.19 0L181.44 0 181.44-17.71 176.72-17.71 176.72-20.83 181.55-20.83 181.55-27.78 185.09-27.78 185.09-20.83 190.26-20.83 190.26-17.71 185.19-17.71 185.19 0ZM204.56 0.42L204.56 0.42Q201.3 0.42 198.71-1.04 196.13-2.5 194.65-5.02 193.17-7.53 193.17-10.63L193.17-10.63Q193.17-13.58 194.6-15.99 196.02-18.4 198.43-19.83 200.85-21.25 203.76-21.25L203.76-21.25Q206.65-21.25 209.04-19.88 211.44-18.51 212.86-16.18 214.29-13.85 214.29-10.9L214.29-10.9 214.29-9.38 200.67-9.38Q199.77-9.38 198.83-9.44 197.9-9.51 196.99-9.65L196.99-9.65Q197.38-6.88 199.51-5 201.65-3.13 204.6-3.13L204.6-3.13Q206.58-3.13 208.28-4.03 209.98-4.93 211.02-6.42L211.02-6.42 212.06-2.15Q210.57-0.94 208.64-0.26 206.72 0.42 204.56 0.42ZM196.89-12.19L196.89-12.19Q198.76-12.5 200.67-12.5L200.67-12.5 207.58-12.5Q208.35-12.5 209.09-12.45 209.84-12.4 210.61-12.33L210.61-12.33Q210.12-14.76 208.17-16.34 206.23-17.92 203.76-17.92L203.76-17.92Q201.23-17.92 199.32-16.23 197.41-14.55 196.89-12.19ZM224.67 0.42L224.67 0.42Q223.07 0.42 221.24-0.19 219.42-0.8 218.1-2.22L218.1-2.22 219.14-6.32Q220.12-4.69 221.64-3.73 223.17-2.78 224.91-2.78L224.91-2.78Q226.57-2.78 227.41-3.59 228.24-4.41 228.24-5.59L228.24-5.59Q228.24-6.94 227.36-7.57 226.47-8.19 225.78-8.44L225.78-8.44 222.96-9.51Q222.2-9.83 221.12-10.43 220.05-11.04 219.25-12.19 218.45-13.33 218.45-15.17L218.45-15.17Q218.45-16.84 219.25-18.23 220.05-19.62 221.51-20.43 222.96-21.25 224.94-21.25L224.94-21.25Q226.51-21.25 228.21-20.69 229.91-20.14 231.09-18.82L231.09-18.82 230.05-14.72Q229.21-16.25 227.79-17.15 226.37-18.06 224.84-18.06L224.84-18.06Q223.42-18.06 222.6-17.26 221.78-16.46 221.78-15.42L221.78-15.42Q221.78-14.58 222.34-13.92 222.89-13.26 224.01-12.85L224.01-12.85 226.82-11.77Q227.58-11.49 228.71-10.87 229.84-10.24 230.71-9.06 231.57-7.88 231.57-5.87L231.57-5.87Q231.57-3.06 229.61-1.32 227.65 0.42 224.67 0.42Z" opacity="1" transform="matrix(1,0,0,1,0,0)" fill="#ffffff" class="wordmark-text-0" data-fill-palette-color="primary" id="text-0"></path></svg></g></svg></g></svg></g></svg></g></svg></g><defs></defs></svg><rect width="395.52" height="131.46793251827242" fill="none" stroke="none" visibility="hidden"></rect></g></svg></g></svg>